# xmcd CD database file
#
# Track frame offsets:
#	150
#	18714
#	41497
#	59897
#	79137
#	99772
#	118247
#	139328
#	159266
#	179890
#
# Disc length: 2580 seconds
#
# Revision: 0
# Processed by: cddbd v1.5.1PL0 Copyright (c) Steve Scherf et al.
# Submitted via: CDex 1.50
#
DISCID=8e0a120a
DTITLE=Celenia - Una Gran Majer
DYEAR=1996
DGENRE=Salsa
TTITLE0=Una Gran Muier
TTITLE1=Para Quererte
TTITLE2=Como Un Dia Doningo
TTITLE3=Dudas
TTITLE4=No Te Quiero Como Un Amigo
TTITLE5=La Tirana
TTITLE6=Tanto Por Nada
TTITLE7=Si, Te Ame
TTITLE8=Sigo Cantando
TTITLE9=Just The Way You Are
EXTD=YEAR: 1996
EXTT0=
EXTT1=
EXTT2=
EXTT3=
EXTT4=
EXTT5=
EXTT6=
EXTT7=
EXTT8=
EXTT9=
PLAYORDER=
